<svg width="96" height="96" viewBox="0 0 96 96" fill="none" xmlns="http://www.w3.org/2000/svg">
<g clip-path="url(#clip0_700_52359)">
<path d="M95.6977 0.0898438H-0.111328V96.1408H95.6977V0.0898438Z" fill="#0574F7"/>
<path d="M96.4697 21.7094C97.0226 20.9058 96.8499 19.8247 96.0834 19.2947L88.4508 14.0167C87.6843 13.4867 86.6151 13.7085 86.0622 14.512L80.5561 22.5146C80.0032 23.3182 80.1759 24.3993 80.9424 24.9293L88.575 30.2073C89.3415 30.7373 90.4107 30.5155 90.9636 29.7119L96.4697 21.7094Z" fill="#007373"/>
<path d="M12.6751 47.5441C13.3647 47.0222 13.5203 46.0633 13.0227 45.4026L8.06719 38.8202C7.56959 38.1594 6.60721 38.0465 5.9177 38.5682L-0.949107 43.7641C-1.63864 44.2859 -1.79423 45.2445 -1.29662 45.9056L3.65887 52.4879C4.15647 53.1487 5.11884 53.2617 5.80836 52.7398L12.6751 47.5441Z" fill="#0064D9"/>
<path d="M72.4642 22.3516H21.2139V73.626H72.4642V22.3516Z" fill="#FFE298"/>
<path d="M46.7181 17.4766C30.4869 17.4766 17.332 29.984 17.332 45.4092C17.332 60.8342 30.4869 73.347 46.7181 73.347C62.9496 73.347 76.11 60.8396 76.11 45.4092C76.11 29.9785 62.9496 17.4766 46.7181 17.4766ZM53.1139 68.9429C41.2712 68.9429 31.6668 59.6338 31.6668 48.1451C31.6668 36.656 41.2601 27.4902 53.1139 27.3526C66.5609 27.1874 74.5664 36.6615 74.5664 48.1505C74.5664 59.6396 64.9565 68.9429 53.1139 68.9429Z" fill="#FFE298"/>
<path d="M41.5723 26.742C36.6103 28.8064 37.7957 31.6965 40.5081 32.7535C44.1194 34.2013 50.173 37.2566 50.2669 43.4223C50.3827 50.0833 43.7169 50.5404 40.9879 46.4224C40.919 46.3233 40.8197 46.2492 40.7047 46.2118C40.5897 46.1748 40.4658 46.1763 40.3515 46.2161C40.2376 46.2562 40.1399 46.3325 40.0733 46.4336C40.0071 46.5343 39.976 46.6542 39.9844 46.7746C40.1553 49.4172 41.3353 53.4468 46.6887 54.7737C56.3702 56.2105 62.1591 45.013 59.2539 36.7226C55.5764 23.6812 43.8162 25.8007 41.5723 26.742Z" fill="#FFE298"/>
<path d="M79.5549 69.5655L69.6345 72.4715V39.1448C69.6345 35.2026 68.0658 28.8944 65.2745 26.107C62.4827 23.3195 58.6964 21.7535 54.7481 21.7535H39.3034C35.3553 21.7535 31.569 23.3195 28.7773 26.107C25.9856 28.8944 24.4173 32.675 24.4173 36.617V72.4715L14.4639 69.2006V40.3019C14.4755 32.7133 17.4998 25.4389 22.8739 20.073C28.2479 14.7071 35.5333 11.6874 43.1332 11.6758H50.8521C58.4521 11.6874 65.7377 14.7071 71.1115 20.073C76.4857 25.4389 79.5098 32.7133 79.5218 40.3019L79.5549 69.5655Z" fill="#25AFFE"/>
<path d="M29.5279 10.7637C31.9979 10.7637 34.1757 12.2941 35.3225 13.3015C35.4417 13.4075 35.5376 13.5371 35.6041 13.6821C35.6705 13.8271 35.706 13.9843 35.7084 14.1438C35.7136 14.3031 35.6815 14.4614 35.6147 14.6062C35.5532 14.754 35.4612 14.8872 35.3445 14.997C34.2418 16.0265 32.0806 17.6394 29.6106 17.6615C27.1406 17.6835 24.9573 16.1366 23.816 15.1292C23.6976 15.0228 23.602 14.8936 23.5349 14.7493C23.4677 14.6042 23.432 14.4467 23.4301 14.2869C23.4258 14.1282 23.4559 13.9705 23.5183 13.8245C23.5837 13.6774 23.6773 13.5446 23.794 13.4336C24.9187 12.3987 27.0689 10.7802 29.5279 10.7637Z" fill="#25AFFE"/>
<path d="M28.7983 17.517C30.2428 15.5132 32.79 14.6874 34.3117 14.3626C34.468 14.3296 34.6295 14.3296 34.7858 14.3626C34.9422 14.3948 35.0905 14.4585 35.2214 14.5498C35.35 14.6452 35.4587 14.7649 35.5412 14.9021C35.6185 15.042 35.669 15.1951 35.6901 15.3535C35.8555 16.8674 35.8885 19.5428 34.444 21.5411C32.9995 23.5395 30.4523 24.3762 28.9582 24.701C28.8019 24.734 28.6404 24.734 28.4841 24.701C28.3281 24.6651 28.1811 24.5978 28.0522 24.5031C27.9233 24.4085 27.8151 24.2885 27.7343 24.1505C27.653 24.0143 27.6023 23.8622 27.5854 23.7046C27.3869 22.2073 27.3593 19.5208 28.7983 17.517Z" fill="#25AFFE"/>
<path d="M59.7564 10.2783C59.7441 10.0932 59.6898 9.91252 59.5971 9.74824C59.5044 9.584 59.3747 9.43986 59.2174 9.32534C59.0604 9.21086 58.8784 9.12858 58.6845 9.08395C58.4906 9.03932 58.2882 9.03338 58.0916 9.06648C56.643 9.28518 55.239 9.70709 53.9274 10.3177L50.4374 5.82028C50.0407 5.31842 49.5217 4.91032 48.9234 4.62905C48.3247 4.34775 47.6633 4.20117 46.9923 4.20117C46.3213 4.20117 45.6599 4.34775 45.0612 4.62905C44.463 4.91032 43.9439 5.31842 43.5473 5.82028L40.0056 10.4008C38.6575 9.75472 37.2072 9.31168 35.7091 9.08835C35.5142 9.05533 35.314 9.06065 35.1215 9.10397C34.9289 9.14729 34.7484 9.22767 34.5914 9.33984C34.4345 9.45201 34.3047 9.59353 34.2104 9.75519C34.1162 9.91688 34.0596 10.0951 34.0443 10.2783C33.9123 12.0502 33.7944 14.7408 35.7091 16.9939L38.1709 20.7782H55.6203L58.082 17.0201C60.0065 14.7583 59.8884 12.0677 59.7564 10.2783Z" fill="#25AFFE"/>
<path d="M45.7816 9.21268L43.0933 13.1587C42.9244 13.4118 42.834 13.7092 42.834 14.0134C42.834 14.3176 42.9244 14.615 43.0933 14.8681L45.7816 18.8047C45.9201 19.0009 46.1024 19.1622 46.3144 19.2756C46.5241 19.3857 46.7569 19.4438 46.9935 19.4452C47.2317 19.4438 47.4664 19.3857 47.6776 19.2756C47.8881 19.162 48.0689 19.0007 48.2055 18.8047L50.8984 14.8681C51.0676 14.615 51.1581 14.3176 51.1581 14.0134C51.1581 13.7092 51.0676 13.4118 50.8984 13.1587L48.2055 9.21268C48.0689 9.01669 47.8881 8.85542 47.6776 8.74175C47.4664 8.63167 47.2317 8.57354 46.9935 8.57227C46.7569 8.57358 46.5241 8.63171 46.3144 8.74175C46.1024 8.85523 45.9201 9.01646 45.7816 9.21268Z" fill="#0094FF"/>
<path d="M97.0204 41.2806C97.561 41.1028 97.8615 40.5389 97.6922 40.0208L96.0047 34.8633C95.835 34.3454 95.2598 34.0696 94.7196 34.2473L89.3389 36.0166C88.7987 36.1942 88.4978 36.7581 88.6675 37.276L90.355 42.4335C90.5243 42.9516 91.0995 43.2273 91.64 43.0499L97.0204 41.2806Z" fill="#0064D9"/>
<path d="M22.0714 68.5651C21.9242 69.3196 21.7741 70.1701 21.6214 71.1163C19.0355 71.335 17.5025 71.5568 17.0225 71.7809C17.3989 75.2867 17.5953 78.0813 17.6116 80.1649C16.6842 80.384 15.6886 80.4195 14.6248 80.2718L13.8311 69.4511C15.5168 68.7017 18.2636 68.4062 22.0714 68.5651ZM20.3039 91.7725C21.1713 92.478 21.6323 93.2683 21.6868 94.1435L16.8588 96.5797C17.1207 96.9847 17.6171 97.1954 18.3481 97.2116C19.0846 97.2281 19.9984 96.766 21.0895 95.8253L21.7114 97.8434C20.8058 99.1722 19.1337 99.7137 16.6951 99.4676C15.1349 98.9373 14.2293 97.7531 13.9784 95.9155C13.902 94.7013 14.0902 93.6594 14.543 92.7896C15.214 91.6741 16.2178 91.1245 17.5544 91.1407C18.64 91.0697 19.5565 91.2803 20.3039 91.7725ZM16.2696 94.9474L19.0273 93.5854C18.5691 92.9729 17.909 92.8197 17.047 93.126C16.4524 93.487 16.1933 94.0942 16.2696 94.9474ZM16.7115 110.386L16.777 111.157C17.6062 110.763 18.269 110.553 18.7655 110.526C19.922 110.498 20.7949 111.116 21.384 112.379C21.5423 112.806 21.6186 113.325 21.6132 113.938C21.6623 115.541 21.1959 116.714 20.2139 117.458C19.9575 117.704 19.521 117.843 18.9046 117.876C18.3427 117.909 17.8299 117.873 17.3662 117.769L17.6526 122.331L15.0504 122.06L14.3957 114.307L14.0929 110.927C14.322 110.818 15.1949 110.637 16.7115 110.386ZM16.9897 113.028L17.137 115.16L17.1698 115.759L18.0454 115.866C18.88 115.806 19.2892 115.292 19.2728 114.324C19.191 113.235 18.7 112.74 17.7999 112.839L16.9897 113.028ZM18.3563 129.606C19.7365 129.634 20.7022 130.252 21.2531 131.461C21.4113 131.942 21.4768 132.475 21.4495 133.06C21.4495 134.422 20.9667 135.705 20.0011 136.908C19.221 137.673 18.2254 138.056 17.0143 138.056C15.6013 137.942 14.6821 137.167 14.2566 135.735C14.1257 135.27 14.0629 134.742 14.0684 134.151C14.2266 132.018 15.2058 130.58 17.0061 129.836C17.4807 129.683 17.9308 129.606 18.3563 129.606ZM16.4087 134.356C16.496 135.122 16.8452 135.505 17.4562 135.505C18.0181 135.505 18.5855 135.103 19.1583 134.299C19.3438 133.949 19.4256 133.517 19.4037 133.003C19.4037 132.237 19.071 131.854 18.4054 131.854C17.718 131.854 17.1016 132.355 16.556 133.356C16.436 133.695 16.3869 134.028 16.4087 134.356ZM14.6003 148.925L16.8097 149.106L17.0634 152.1L19.4037 149.245H21.335C21.1659 152.56 20.9749 155.27 20.7621 157.375H18.7655L18.6018 154.036L16.0569 157.375H14.4939C14.3902 155.089 14.4257 152.273 14.6003 148.925Z" fill="#F9FBE9"/>
<path d="M10.8406 72.4851L15.0686 72.3848L15.3194 77.2869L13.8699 77.5234L13.7896 73.8779L12.1646 73.8127L12.0343 77.5635L10.665 77.2167L10.8406 72.4851ZM17.2074 72.4249L17.2475 72.8974C17.7557 72.6559 18.162 72.5271 18.4662 72.5101C19.1751 72.4935 19.7101 72.8723 20.0712 73.6465C20.1681 73.908 20.215 74.2266 20.2116 74.6019C20.2417 75.5839 19.9558 76.3033 19.354 76.7589C19.1968 76.9101 18.9293 76.9953 18.5515 77.0154C18.2071 77.0354 17.8928 77.0138 17.6086 76.9502L17.7842 79.7459L16.1892 79.5796L15.788 74.8283L15.6024 72.7566C15.7429 72.6895 16.2779 72.5792 17.2074 72.4249ZM17.3779 74.0438L17.4682 75.3514L17.4882 75.7182L18.0249 75.7838C18.5365 75.7467 18.7872 75.4316 18.7772 74.8383C18.7271 74.171 18.4261 73.8679 17.8744 73.928L17.3779 74.0438ZM23.0576 72.3848C23.9035 72.4014 24.4954 72.7801 24.833 73.5211C24.93 73.8158 24.9701 74.1429 24.9534 74.5012C24.9534 75.3359 24.6575 76.122 24.0657 76.8595C23.5876 77.329 22.9774 77.5635 22.2351 77.5635C21.3691 77.4933 20.8056 77.0188 20.5449 76.1405C20.4646 75.8555 20.4262 75.5323 20.4295 75.1701C20.5265 73.8629 21.1266 72.9811 22.2301 72.5256C22.5209 72.4314 22.7968 72.3848 23.0576 72.3848ZM21.8639 75.2958C21.9174 75.7652 22.1314 75.9998 22.5059 75.9998C22.8503 75.9998 23.198 75.7533 23.5491 75.2607C23.6628 75.0463 23.7129 74.7813 23.6996 74.4661C23.6996 73.9971 23.4956 73.7622 23.0877 73.7622C22.6664 73.7622 22.2885 74.0688 21.9542 74.6825C21.8806 74.8904 21.8505 75.0949 21.8639 75.2958ZM14.7576 84.4023C14.7108 84.734 14.654 85.1313 14.5871 85.5938C13.4904 85.691 12.8367 85.7882 12.6261 85.8854C12.7899 87.394 12.8769 88.6109 12.8869 89.5359C12.4756 89.6331 12.0343 89.6481 11.5628 89.5814L11.2117 84.7946C11.9573 84.4625 13.1393 84.3317 14.7576 84.4023ZM16.6406 84.3823L16.6808 84.8548C17.189 84.6133 17.5952 84.4845 17.8995 84.4675C18.6084 84.4509 19.1433 84.8297 19.5044 85.6039C19.6014 85.8654 19.6482 86.184 19.6449 86.5593C19.675 87.5413 19.3891 88.2607 18.7872 88.7162C18.6301 88.8674 18.3626 88.9527 17.9848 88.9727C17.6404 88.9928 17.3261 88.9712 17.0419 88.9076L17.2174 91.7033L15.6225 91.537L15.2213 86.7857L15.0357 84.714C15.1761 84.6469 15.7111 84.5366 16.6406 84.3823ZM16.8112 86.0011L16.9014 87.3087L16.9215 87.6756L17.4582 87.7411C17.9697 87.7041 18.2205 87.389 18.2105 86.7957C18.1603 86.1284 17.8594 85.8253 17.3077 85.8854L16.8112 86.0011ZM22.6062 84.3067C23.4187 84.27 23.9219 84.8849 24.1158 86.152C24.273 87.2852 24.3834 88.2723 24.4469 89.1135L22.8469 89.5965L22.7918 89.2794C22.3304 89.4607 21.8388 89.5494 21.3172 89.5459C20.4713 89.3951 20.0166 88.884 19.953 88.0123C19.953 87.2783 20.4329 86.8528 21.3925 86.7352C21.8071 86.6816 22.1999 86.68 22.5711 86.7302C22.5444 86.1169 22.4424 85.7983 22.2651 85.7751C21.9508 85.7651 21.5379 86.0482 21.0263 86.6249L19.943 85.8152C20.6351 84.7861 21.5228 84.2831 22.6062 84.3067ZM21.3222 88.1531C21.3824 88.2838 21.553 88.351 21.8338 88.3544C22.0679 88.3479 22.3471 88.3108 22.6714 88.2437L22.6162 87.6806L22.1247 87.6856C21.563 87.6891 21.2955 87.8449 21.3222 88.1531ZM12.3538 96.3346H13.2867L14.3048 98.4665L15.333 96.3346H16.3311L17.7504 100.483L16.2709 101.463L15.5537 99.2206L14.7011 101.453L13.8635 101.423L13.2215 99.2357L12.5896 101.649L11.1953 100.784L12.3538 96.3346ZM19.0617 96.3346H19.9945L21.0127 98.4665L22.0409 96.3346H23.0389L24.4583 100.483L22.9787 101.463L22.2615 99.2206L21.4089 101.453L20.5713 101.423L19.9294 99.2357L19.2974 101.649L17.9031 100.784L19.0617 96.3346ZM10.991 108.277L12.3452 108.387L12.5007 110.223L13.9351 108.473H15.1188C15.0151 110.504 14.8981 112.165 14.7677 113.456H13.5439L13.4436 111.409L11.8838 113.456H10.9258C10.8623 112.055 10.884 110.328 10.991 108.277ZM17.0519 108.297L17.092 108.77C17.6002 108.528 18.0065 108.399 18.3108 108.382C19.0196 108.366 19.5546 108.744 19.9157 109.519C20.0127 109.78 20.0595 110.099 20.0561 110.474C20.0862 111.456 19.8004 112.175 19.1985 112.631C19.0414 112.782 18.7738 112.867 18.396 112.888C18.0516 112.908 17.7373 112.886 17.4531 112.822L17.6287 115.618L16.0338 115.452L15.6325 110.7L15.4469 108.629C15.5874 108.562 16.1224 108.451 17.0519 108.297ZM17.2224 109.916L17.3127 111.224L17.3328 111.59L17.8694 111.656C18.381 111.619 18.6318 111.304 18.6217 110.71C18.5716 110.043 18.2706 109.74 17.7189 109.8L17.2224 109.916ZM22.9021 108.257C23.7481 108.274 24.3399 108.652 24.6776 109.393C24.7745 109.688 24.8147 110.015 24.798 110.373C24.798 111.208 24.502 111.994 23.9102 112.732C23.4321 113.201 22.8219 113.436 22.0796 113.436C21.2136 113.365 20.6502 112.891 20.3894 112.013C20.3091 111.728 20.2707 111.404 20.274 111.042C20.371 109.735 20.9712 108.853 22.0746 108.398C22.3655 108.304 22.6413 108.257 22.9021 108.257ZM21.7085 111.168C21.7619 111.637 21.9759 111.872 22.3504 111.872C22.6948 111.872 23.0425 111.625 23.3936 111.133C23.5073 110.918 23.5574 110.653 23.5441 110.338C23.5441 109.869 23.3401 109.634 22.9322 109.634C22.5109 109.634 22.1331 109.941 21.7987 110.555C21.7252 110.763 21.6951 110.967 21.7085 111.168ZM13.3884 120.239C14.1106 120.46 14.45 120.888 14.4065 121.522C14.3363 121.803 14.0738 122.075 13.6191 122.336L13.915 122.406C14.6774 122.674 15.082 123.105 15.1288 123.699C15.1555 124.091 15.0736 124.443 14.883 124.755C14.3848 125.324 13.2112 125.541 11.3622 125.403L10.971 120.561C11.6765 120.192 12.4823 120.085 13.3884 120.239ZM12.3502 121.325L12.3653 121.853C12.8735 121.76 13.1493 121.592 13.1928 121.351C13.1794 121.28 13.1226 121.233 13.0223 121.21C12.8317 121.176 12.6077 121.215 12.3502 121.325ZM12.6261 124.181C13.2915 124.111 13.6325 123.937 13.6492 123.658C13.676 123.504 13.6175 123.405 13.4737 123.362C13.1962 123.285 12.9036 123.311 12.596 123.442L12.6261 124.181ZM18.0851 120.179C18.8976 120.142 19.4008 120.757 19.5947 122.024C19.7519 123.157 19.8622 124.144 19.9257 124.986L18.3258 125.469L18.2706 125.152C17.8092 125.333 17.3177 125.422 16.7961 125.418C15.9502 125.267 15.4954 124.756 15.4319 123.884C15.4319 123.15 15.9117 122.725 16.8713 122.607C17.2859 122.554 17.6788 122.552 18.05 122.602C18.0232 121.989 17.9212 121.67 17.744 121.647C17.4297 121.637 17.0168 121.92 16.5052 122.497L15.4219 121.687C16.114 120.658 17.0017 120.155 18.0851 120.179ZM16.8011 124.025C16.8613 124.156 17.0319 124.223 17.3127 124.227C17.5468 124.22 17.8259 124.183 18.1503 124.116L18.0951 123.553L17.6036 123.558C17.0419 123.561 16.7744 123.717 16.8011 124.025ZM23.0124 120.079L24.2061 120.285L24.6876 124.644L23.2231 125.343L23.1278 123.879H21.7085L21.578 125.373C20.6752 125.034 20.1938 124.83 20.1336 124.76L20.5298 120.365L21.8739 120.164L21.8639 122.361H23.0576L23.0124 120.079ZM13.4873 132.192L14.8415 132.302L14.997 134.137L16.4314 132.388H17.615C17.5114 134.419 17.3944 136.08 17.2639 137.37H16.0402L15.9399 135.324L14.3801 137.37H13.4221C13.3586 135.97 13.3803 134.243 13.4873 132.192ZM19.3726 132.277L19.7388 132.192C20.5847 132.148 21.23 132.133 21.6747 132.146L22.2716 137.325L20.7719 137.36L20.5914 135.581L19.5332 137.431L18.1489 136.898L19.1319 135.244C18.4431 135.073 18.0469 134.704 17.9432 134.137C17.8931 133.93 17.8897 133.735 17.9332 133.554C18.2141 132.867 18.6939 132.441 19.3726 132.277ZM20.3808 133.313C20.0598 133.333 19.7973 133.382 19.5933 133.459C19.4195 133.543 19.3475 133.67 19.3777 133.841C19.4278 134.116 19.7772 134.213 20.4259 134.132L20.3808 133.313Z" fill="#F9FBE9"/>
<path d="M55.9596 -5.97656L69.3974 -5.10645L55.1821 34.7083L51.2061 33.078L55.9596 -5.97656Z" fill="url(#paint0_linear_700_52359)"/>
<path d="M-18.6338 30.4279L9.02792 -12.2383L36.5429 27.5723L23.9959 46.7526L-18.6338 30.4279Z" fill="url(#paint1_linear_700_52359)"/>
<path d="M3.70486 36.2755L-6.16124 38.0818C-7.15195 38.2631 -7.80842 39.2153 -7.6275 40.2085L-5.82583 50.0995C-5.64491 51.0928 -4.69512 51.7509 -3.70441 51.5695L6.16169 49.7633C7.1524 49.5819 7.80886 48.6297 7.62795 47.6365L5.82627 37.7455C5.64536 36.7523 4.69557 36.0942 3.70486 36.2755Z" fill="#7E2D86"/>
<path d="M-7.62627 40.207C-7.80718 39.2142 -7.15072 38.2618 -6.15999 38.0804L3.7061 36.2742C4.69682 36.0928 5.64662 36.7509 5.82753 37.7441L7.38353 46.2864C7.56444 47.2796 6.90798 48.232 5.91725 48.4133L-3.94883 50.2196C-4.93956 50.4009 -5.88935 49.7428 -6.07026 48.7496L-7.62627 40.207Z" fill="#A02DD6"/>
<path d="M2.49528 41.8539C2.14518 42.3619 1.53014 42.5768 0.96525 42.441C0.67773 42.372 0.615593 42.0256 0.783694 41.7818L1.82276 40.2744C1.99086 40.0306 2.33626 39.9666 2.5023 40.2115C2.82854 40.6937 2.84538 41.3463 2.49528 41.8539Z" fill="#B93FF3"/>
<path d="M-2.33192 44.7182C-2.35607 44.5859 -2.26887 44.4566 -2.13667 44.4323L2.12415 43.6524C2.25635 43.6281 2.3835 43.718 2.40764 43.8507C2.64664 45.1629 1.78338 46.4423 0.474582 46.6823C-0.834212 46.9218 -2.09292 46.0304 -2.33192 44.7182Z" fill="#B93FF3"/>
<path d="M104.817 8.64509L84.1475 -11.8828L58.0938 31.0506L63.9412 36.6075L104.817 8.64509Z" fill="url(#paint2_linear_700_52359)"/>
<path d="M86.2683 111.171L122.94 61.5031L64.6541 42.7559L61.0625 49.4566L86.2683 111.171Z" fill="url(#paint3_linear_700_52359)"/>
<path d="M90.4538 6.36945C89.7651 5.5263 88.5247 5.40268 87.6836 6.09339L79.308 12.9717C78.4669 13.6625 78.3438 14.9059 79.0329 15.749L85.8937 24.1457C86.5828 24.9889 87.8229 25.1125 88.6639 24.4218L97.0396 17.5434C97.8806 16.8527 98.0037 15.6093 97.315 14.7661L90.4538 6.36945Z" fill="#089F33"/>
<path d="M90.4538 6.36945C89.7651 5.5263 88.5247 5.40268 87.6836 6.09339L79.308 12.9717C78.4669 13.6625 78.3438 14.9059 79.0329 15.749L84.958 23.0007C85.6471 23.8439 86.8875 23.9675 87.7286 23.2768L96.1039 16.3984C96.9449 15.7077 97.0684 14.4643 96.3793 13.6211L90.4538 6.36945Z" fill="#21B94C"/>
<path fill-rule="evenodd" clip-rule="evenodd" d="M85.3868 16.9081C85.1286 16.592 85.1748 16.1257 85.4899 15.8667L90.0584 12.1148C90.3739 11.8558 90.8391 11.9022 91.0973 12.2184C91.3558 12.5346 91.3096 13.0009 90.9941 13.2599L86.4256 17.0117C86.1101 17.2707 85.6453 17.2244 85.3868 16.9081Z" fill="#23CE54"/>
<path d="M85.0068 17.2208L85.6628 14.1309L88.1579 17.1842L85.0068 17.2208Z" fill="#23CE54"/>
<path fill-rule="evenodd" clip-rule="evenodd" d="M85.5466 13.6507C85.7305 13.6059 85.9236 13.6707 86.0437 13.8175L88.5384 16.8708C88.6585 17.0175 88.6839 17.2201 88.6038 17.392C88.5238 17.5639 88.3526 17.6746 88.1637 17.6768L85.0126 17.7134C84.8629 17.7151 84.7209 17.6486 84.6263 17.5327C84.5312 17.4167 84.4943 17.2639 84.5255 17.1173L85.1815 14.0274C85.2211 13.8419 85.3631 13.6955 85.5466 13.6507ZM85.6162 16.7196L87.1283 16.702L85.931 15.2369L85.6162 16.7196Z" fill="#23CE54"/>
<path d="M19.3031 54.5252C20.6489 54.0438 22.1619 53.343 22.0694 51.9162C21.9826 50.5785 21.4484 49.1343 19.6439 48.7571C16.0703 48.0103 14.8645 50.8203 14.8645 50.8203C14.8645 50.8203 14.0902 50.185 13.1858 50.7308C12.2814 51.277 12.8216 52.1719 13.615 54.0419C14.4084 55.9119 14.5805 56.4997 15.2392 56.7655C15.898 57.0308 16.3862 56.811 17.0439 56.2648C17.4732 55.9084 18.0894 54.9591 19.3031 54.5252Z" fill="#0E0D74"/>
<path d="M18.8304 20.0412C18.7038 19.4458 18.4495 18.8849 18.0851 18.3972L13.921 12.8195C13.8684 12.7391 13.7926 12.6764 13.7037 12.6398C13.6148 12.603 13.5168 12.594 13.4226 12.6137C13.3284 12.6335 13.2423 12.6811 13.1756 12.7505C13.1089 12.8199 13.0646 12.9077 13.0486 13.0025L11.474 19.817C11.3327 20.4386 11.3329 21.0837 11.4745 21.7049L14.0405 33.1L21.2936 31.4769L18.8304 20.0412Z" fill="#6678E3"/>
<path d="M17.6105 33.2649C17.6898 33.2876 17.7732 33.2917 17.8543 33.2768C17.9777 33.2461 18.0841 33.1678 18.1502 33.0592C18.2162 32.9505 18.2366 32.8202 18.2069 32.6967L15.6136 20.8449C15.5871 20.7198 15.5119 20.6103 15.4045 20.5407C15.2972 20.471 15.1665 20.4468 15.0412 20.4734C14.9159 20.5001 14.8062 20.5753 14.7363 20.6826C14.6665 20.7899 14.6422 20.9205 14.6687 21.0457L17.265 32.8993C17.2824 32.9865 17.3241 33.067 17.3852 33.1317C17.4463 33.1963 17.5244 33.2425 17.6105 33.2649Z" fill="#5063DB"/>
<path d="M22.3055 31.0961C22.3094 30.9645 22.284 30.8336 22.231 30.7131C22.1781 30.5925 22.099 30.4852 21.9995 30.399C21.8999 30.3127 21.7824 30.2496 21.6554 30.2142C21.5284 30.1789 21.3951 30.1722 21.2652 30.1946L13.4837 31.901C13.3571 31.9358 13.2396 31.9981 13.1397 32.0833C13.0399 32.1685 12.96 32.2747 12.9058 32.3942C12.8516 32.5137 12.8245 32.6436 12.8263 32.7748C12.8281 32.9059 12.8587 33.035 12.9161 33.1529C13.4389 34.4524 14.8327 36.37 18.3729 35.6026C21.9132 34.8353 22.3751 32.4913 22.3055 31.0961Z" fill="#1C76D8"/>
<path d="M22.1816 38.7766C20.8845 37.0903 19.7374 35.663 17.8005 35.9134C16.5724 36.076 13.9663 38.019 15.4444 39.8871C15.4444 39.8871 21.0911 46.552 23.0852 44.8204C24.7838 43.347 23.4788 40.4629 22.1816 38.7766Z" fill="#0E0D74"/>
<path d="M15.2355 34.6529C16.6102 32.7939 19.2366 32.4031 21.1019 33.7801C22.9671 35.1571 23.3647 37.7803 21.99 39.6394C20.6152 41.4982 17.9887 41.8889 16.1236 40.5123C14.2584 39.1353 13.8607 36.5119 15.2355 34.6529Z" fill="#0E0D74"/>
<path d="M37.8794 46.2672C37.8794 46.2672 38.5229 41.4916 31.6112 39.5773C25.928 38.0086 24.391 40.9373 24.391 40.9373C24.391 40.9373 21.7475 44.5859 20.9041 46.7108C20.0607 48.8358 19.2874 50.3266 20.2842 52.4376C21.2811 54.5483 25.036 55.4953 27.0732 56.2999L28.7081 56.946C31.324 57.9797 33.6247 56.9487 34.8495 53.8629L37.8794 46.2672Z" fill="#08429B"/>
<path d="M32.0318 57.9037C31.6738 56.5209 31.1109 54.9533 29.6837 54.9232C28.3447 54.895 26.8592 55.3047 26.3237 57.074C25.2635 60.5764 27.9524 62.0197 27.9524 62.0197C27.9524 62.0197 27.2518 62.7379 27.7149 63.6872C28.1779 64.6365 29.1162 64.1736 31.0471 63.5418C32.9781 62.9096 33.5785 62.7881 33.901 62.1532C34.2235 61.5187 34.0482 61.0126 33.563 60.3098C33.246 59.8504 32.3554 59.1538 32.0318 57.9037Z" fill="#FFE298"/>
<path d="M34.9055 58.2817L35.6852 46.781C35.6852 46.781 35.491 43.4113 30.953 41.4461C25.6323 39.1414 23.8562 41.4692 23.8562 41.4692L16.5459 49.2635C16.5459 49.2635 18.9522 54.06 22.7612 55.9774C27.269 58.2489 33.4371 58.7303 34.9055 58.2817Z" fill="#B0BA49"/>
<path d="M22.7787 55.9689C27.2759 58.2338 33.445 58.7187 34.915 58.2666L35.2517 53.9118L29.737 56.3322L26.6764 52.6031L22.0124 53.1269L18.8135 46.8809L16.5059 49.1585C16.5059 49.1585 16.844 52.9795 22.7787 55.9689Z" fill="#8CA33F"/>
<path d="M35.537 44.377C37.7224 42.8801 42.5575 50.1447 42.5575 50.1447C43.8118 52.1659 40.9935 53.8041 39.7565 53.8238C37.7954 53.8612 36.8361 52.3125 35.7352 50.4826C34.6343 48.6528 33.6921 45.6337 35.537 44.377Z" fill="#0E0D74"/>
<path d="M42.1604 55.3683C43.7421 53.6773 43.6517 51.0266 41.9584 49.4475C40.2655 47.8687 37.6107 47.9594 36.029 49.6504C34.4473 51.3414 34.5377 53.9921 36.2308 55.5708C37.924 57.15 40.5787 57.059 42.1604 55.3683Z" fill="#0E0D74"/>
<path d="M20.042 37.5479C20.0483 37.1535 19.8979 36.7721 19.6237 36.4873C19.3495 36.2024 18.9738 36.0372 18.5786 36.0277C18.3826 36.0232 18.1878 36.0574 18.0053 36.1282C17.8227 36.1991 17.6561 36.3052 17.5149 36.4406C17.3738 36.576 17.2608 36.7379 17.1826 36.9171C17.1043 37.0963 17.0624 37.2892 17.059 37.4848L17.0579 37.568C17.0539 37.7636 17.0886 37.9582 17.16 38.1405C17.2314 38.3229 17.3382 38.4895 17.4742 38.6309C17.6101 38.772 17.7726 38.8851 17.9523 38.9637C18.132 39.042 18.3254 39.0845 18.5214 39.0883C18.9161 39.096 19.2974 38.9472 19.5819 38.6748C19.8663 38.4024 20.0308 38.0282 20.0392 37.6343L20.042 37.5479Z" fill="#1C76D8"/>
<path d="M38.1696 43.7845C36.9799 42.3539 35.0593 42.0935 30.3189 41.0733C25.5785 40.0527 24.2724 40.2887 23.2864 40.5044C21.5978 40.8735 21.0233 42.9576 21.1257 43.8721C21.2281 44.787 22.3456 47.9577 27.3759 50.0861C34.7724 52.8733 40.2642 47.9935 40.5347 47.4358C40.8051 46.8777 39.3558 45.2148 38.1696 43.7845Z" fill="#DF5233"/>
<path d="M26.9254 49.4366C26.8202 49.9095 26.8582 50.4024 27.0345 50.853C27.2109 51.3039 27.5176 51.6915 27.9155 51.9669C28.3135 52.2423 28.7846 52.3928 29.2688 52.3993C29.7531 52.4055 30.2285 52.2678 30.6343 52.0032C31.0403 51.7382 31.3583 51.359 31.5478 50.9131C31.7374 50.4672 31.7899 49.9754 31.6986 49.4998C31.6074 49.0246 31.3765 48.5876 31.0355 48.2443C30.6945 47.901 30.2588 47.6673 29.784 47.5728C29.1582 47.4416 28.5056 47.5643 27.9696 47.9138C27.4336 48.2632 27.0581 48.811 26.9254 49.4366Z" fill="#F7BD68"/>
<path d="M41.9993 32.9016C40.7747 33.6395 39.7962 34.7236 39.1876 36.0167C38.5789 37.3098 38.3678 38.7538 38.5804 40.166C38.7932 41.5781 39.4207 42.8953 40.383 43.9507C41.3453 45.006 42.5995 45.752 43.9869 46.0941C45.3744 46.4366 46.8326 46.3603 48.1773 45.8743C49.522 45.3886 50.6928 44.5154 51.5411 43.3651C52.3899 42.2149 52.8781 40.839 52.9447 39.4123C53.0109 37.9854 52.6523 36.5713 51.9143 35.3489C50.9251 33.7107 49.325 32.5328 47.4659 32.0739C45.6064 31.615 43.6403 31.9127 41.9993 32.9016Z" fill="#08429B"/>
<path d="M41.1297 33.4909C41.8627 32.8875 42.7072 32.4343 43.6152 32.157C44.5232 31.8798 45.4766 31.7841 46.4216 31.8752C47.3661 31.9664 48.2834 32.2428 49.1206 32.6885C49.9578 33.1342 50.6992 33.7405 51.3014 34.4728L38.5088 38.7954C38.5457 37.7768 38.7985 36.7773 39.2502 35.863C39.7023 34.9486 40.3425 34.1401 41.1297 33.4909Z" fill="#08429B"/>
<path d="M33.7263 19.5276C32.5739 20.2215 31.6529 21.2411 31.0799 22.4575C30.5068 23.6738 30.3074 25.0322 30.5068 26.3611C30.7062 27.6899 31.2955 28.9294 32.2001 29.9229C33.1047 30.9164 34.2841 31.6193 35.5892 31.9426C36.8942 32.266 38.2663 32.1954 39.5317 31.7397C40.7976 31.2839 41.8999 30.4636 42.6998 29.3823C43.4993 28.3011 43.9606 27.0075 44.0248 25.6651C44.0891 24.3227 43.7536 22.9918 43.061 21.8407C42.1311 20.297 40.6252 19.1863 38.8746 18.7525C37.1243 18.3188 35.2724 18.5976 33.7263 19.5276Z" fill="#08429B"/>
<path d="M24.2876 29.0945C20.6918 33.6975 21.664 40.4611 26.4627 44.2037C31.2614 47.9468 38.0656 47.2544 41.6639 42.6558C45.2621 38.0573 44.2863 31.2928 39.4889 27.5465C34.691 23.8002 27.8857 24.4958 24.2876 29.0945Z" fill="#08429B"/>
<path d="M21.3157 26.8613L28.1159 32.1714C34.2243 37.571 29.9699 42.9528 26.6648 44.3472C18.1469 37.698 17.7949 30.2189 17.7949 30.2189C18.157 28.9978 20.7468 27.4912 21.3157 26.8613Z" fill="#08429B"/>
<path d="M17.7812 30.2377C17.7924 28.4045 18.3982 26.2689 19.2522 25.971C20.1061 25.673 20.9107 26.5577 22.082 27.468C21.7451 28.3 21.1821 29.0214 20.4567 29.5507C20.0782 29.8366 19.6468 30.0446 19.1874 30.1626C18.7282 30.2805 18.2501 30.3061 17.7812 30.2377Z" fill="#0E0D74"/>
<path d="M34.8071 35.4063C36.4386 33.3267 36.3157 30.5245 34.5376 29.1265C32.7595 27.7285 29.997 28.2743 28.3651 30.3428C26.7332 32.4114 26.8564 35.2247 28.6346 36.6227C30.4127 38.0207 33.1752 37.4748 34.8071 35.4063Z" fill="#F5F5F5"/>
<path d="M30.5385 35.6951C31.543 36.5041 33.2677 36.0243 34.3955 34.6267C35.5232 33.2292 35.6217 31.4449 34.6205 30.6369C33.6194 29.8289 31.8913 30.3077 30.7635 31.7052C29.6358 33.1027 29.5363 34.8904 30.5385 35.6951Z" fill="#070645"/>
<path fill-rule="evenodd" clip-rule="evenodd" d="M25.7108 34.195C25.5179 33.9571 25.2003 33.8127 24.8606 33.8532C24.0578 33.9489 22.945 33.9067 21.9066 33.4227C21.6538 33.3049 21.364 33.3052 21.1212 33.419C20.8688 33.5373 20.6651 33.7833 20.6431 34.116C20.6107 34.6064 20.6645 35.2152 20.948 35.7532C21.243 36.3133 21.769 36.7598 22.59 36.9137C24.1674 37.2093 25.2439 36.0573 25.782 35.1629C25.9893 34.8186 25.9123 34.4435 25.7108 34.195Z" fill="#070645"/>
<path fill-rule="evenodd" clip-rule="evenodd" d="M20.9489 35.7552C21.244 36.3153 21.77 36.7618 22.5909 36.9157C23.4525 37.0771 24.0357 36.9312 24.7212 36.3824C24.0577 35.166 20.6355 34.7113 20.9489 35.7552Z" fill="#990082"/>
<path fill-rule="evenodd" clip-rule="evenodd" d="M30.4186 40.2535C30.0716 40.429 29.9318 40.8521 30.1065 41.1985L30.9947 42.9609C31.1694 43.3072 31.5923 43.4461 31.9393 43.271C32.2864 43.0955 32.4261 42.6723 32.2515 42.326L31.3633 40.5636C31.1886 40.2172 30.7656 40.0784 30.4186 40.2535Z" fill="#0E0D74"/>
<path fill-rule="evenodd" clip-rule="evenodd" d="M28.4554 40.0517C28.0731 39.9846 27.7082 40.2403 27.6405 40.6226L27.3185 42.4389C27.2507 42.8212 27.5057 43.1857 27.888 43.2528C28.2703 43.3196 28.6351 43.0638 28.7029 42.6816L29.0248 40.8652C29.0926 40.4829 28.8376 40.1184 28.4554 40.0517Z" fill="#0E0D74"/>
<path d="M44.1044 26.2788C43.625 26.6487 43.6488 27.6768 44.271 28.4994C44.8931 29.322 45.8938 29.6452 46.3663 29.2621C47.262 28.5841 46.8576 26.5417 46.8576 26.5417C46.8576 26.5417 45.0001 25.6008 44.1044 26.2788Z" fill="#5EC5FF"/>
<path d="M31.7998 25.0573C33.4106 23.375 39.9664 22.0716 44.3399 26.627C47.3567 29.7385 47.8934 32.8749 47.0662 35.6965C46.4891 37.6053 45.5253 38.9348 44.0779 40.4167C44.0317 40.4638 43.9763 40.5001 43.9147 40.524C43.8536 40.5479 43.7878 40.5579 43.722 40.5544C43.6562 40.5506 43.5923 40.5328 43.5338 40.502C43.4757 40.4715 43.4246 40.4287 43.3846 40.377L31.7948 25.5846C31.7287 25.5125 31.6925 25.4179 31.6934 25.3201C31.6943 25.2222 31.7324 25.1283 31.7998 25.0573Z" fill="#29A5FF"/>
<path d="M42.7599 43.4741L45.2916 35.56L38.5673 29.4316L34.9522 41.0768C34.6541 42.0631 35.1437 42.5703 35.8527 42.7763L41.087 44.4284C41.7961 44.6343 42.4733 44.46 42.7599 43.4741Z" fill="#29A5FF"/>
<path d="M29.2519 24.0175L44.4338 43.4982C44.4727 43.5545 44.525 43.6001 44.5862 43.6309C44.6474 43.6618 44.7155 43.6764 44.7839 43.6741C44.8524 43.6714 44.919 43.6517 44.9779 43.617C45.0367 43.5819 45.086 43.5326 45.121 43.4735C45.6189 42.628 46.413 40.792 45.4942 38.8109L33.9631 23.8704C33.2786 23.4866 32.5235 23.2448 31.743 23.1596C30.9624 23.0743 30.1726 23.1472 29.4207 23.3741C29.3574 23.3943 29.3003 23.4302 29.2547 23.4784C29.2089 23.5265 29.1762 23.5854 29.1594 23.6496C29.1425 23.7138 29.1422 23.7812 29.1584 23.8455C29.1746 23.9098 29.2067 23.969 29.2519 24.0175Z" fill="#5EC5FF"/>
<path fill-rule="evenodd" clip-rule="evenodd" d="M45.964 28.6425L45.2372 27.2291L44.0549 26.3366C42.1742 24.8847 38.2355 24.3203 35.2939 25.7837L35.9185 27.0376C38.7445 25.6277 43.7609 26.4577 45.964 28.6425Z" fill="#5EC5FF"/>
<path d="M41.2497 31.3001C40.5029 31.0354 40.1127 30.2155 40.3782 29.469C40.6441 28.7224 41.4648 28.3318 42.2119 28.5965C42.9587 28.8613 43.3489 29.6811 43.0834 30.4277C42.8175 31.1743 41.9969 31.5649 41.2497 31.3001Z" fill="#5EC5FF"/>
<path d="M43.9702 35.0462C43.2234 34.7815 42.8333 33.9617 43.0991 33.2151C43.3646 32.4685 44.1857 32.0779 44.9325 32.3426C45.6796 32.6074 46.0698 33.4272 45.8039 34.1738C45.5384 34.9203 44.7174 35.3109 43.9702 35.0462Z" fill="#5EC5FF"/>
<path fill-rule="evenodd" clip-rule="evenodd" d="M50.8995 52.753C51.41 52.7769 51.804 53.2089 51.7794 53.7181C51.7513 54.3047 51.8852 54.888 52.1672 55.4037C52.4488 55.9194 52.8675 56.3475 53.3769 56.6415L53.3784 56.6422C53.9351 56.9647 54.9624 57.075 56.0786 56.7722C57.1709 56.476 58.1524 55.8349 58.6768 54.9115C58.9292 54.4679 59.494 54.3113 59.9384 54.5624C60.3832 54.8131 60.539 55.3763 60.287 55.8202C59.4567 57.2814 57.995 58.1647 56.5622 58.5535C55.1532 58.9353 53.5735 58.891 52.4481 58.2395C51.6451 57.7759 50.9856 57.1012 50.5416 56.2889C50.0976 55.4762 49.886 54.557 49.9307 53.6321C49.9553 53.1229 50.3889 52.7291 50.8995 52.753Z" fill="#760064"/>
<path d="M68.5768 56.345C69.9562 56.4229 70.1412 57.8852 70.1166 58.3153L69.9108 61.3664C70.1205 61.5029 70.2844 61.6988 70.3813 61.9291C70.4783 62.1594 70.5041 62.4136 70.4552 62.6589C70.2809 63.5218 69.426 63.3494 67.7354 63.2537C66.0452 63.1584 65.5327 63.1904 65.1376 62.7476C64.7424 62.3044 64.8371 61.6302 64.8782 60.9158L64.9752 59.2441C65.0848 57.346 66.6781 56.2378 68.5768 56.345Z" fill="#DF5233"/>
<path d="M86.6597 51.879C88.1187 50.6162 88.7877 48.5865 89.0794 47.2847C89.1129 47.1242 89.1121 46.9584 89.0759 46.7983C89.0401 46.6382 88.9705 46.4874 88.8712 46.3566C88.7724 46.2259 88.6465 46.1175 88.5019 46.0392C88.3576 45.9609 88.1979 45.9146 88.034 45.903L84.4485 45.5127L81.0223 42.5947C80.828 42.4292 80.576 42.347 80.3213 42.3659C80.0666 42.3848 79.83 42.5033 79.6622 42.6954L77.8712 44.7532C77.8312 44.8145 77.8073 44.8847 77.802 44.958C77.7966 45.0309 77.8097 45.1038 77.8401 45.1705C77.8708 45.2369 77.9174 45.2947 77.9763 45.3383C78.0351 45.3823 78.104 45.4105 78.1767 45.4205C78.83 45.4837 79.4618 45.6866 80.0297 46.0153C80.5972 46.3443 81.0873 46.7913 81.4663 47.3263C82.8545 49.211 81.0827 52.1999 80.3925 53.2256C80.3621 53.2649 80.3421 53.3112 80.3344 53.3602C80.3267 53.4096 80.3313 53.4597 80.3486 53.5064C80.3656 53.553 80.3944 53.5947 80.4317 53.6275C80.4694 53.6603 80.5148 53.6827 80.5633 53.6931C81.9311 53.9272 84.6194 53.6468 86.6597 51.879Z" fill="#7286FF"/>
<path fill-rule="evenodd" clip-rule="evenodd" d="M81.2159 51.7922C82.0242 51.884 82.8426 51.8057 83.6186 51.5619C84.3943 51.3185 85.1103 50.915 85.7202 50.3777C86.5604 49.6607 87.7497 47.0833 87.597 45.8594L88.5127 45.9504C89.0886 46.031 89.2337 46.7365 89.1306 47.1947C88.9409 48.1266 88.1937 50.5552 86.6562 51.8824C84.6132 53.6502 81.9277 53.9356 80.5606 53.6841C80.5118 53.6729 80.4664 53.6502 80.4291 53.617C80.3914 53.5842 80.3629 53.5426 80.346 53.4955C80.3286 53.4488 80.324 53.3983 80.3317 53.3489C80.3394 53.2996 80.3594 53.2533 80.3898 53.2136C80.6965 52.7588 80.9727 52.284 81.2159 51.7922Z" fill="#8697FF"/>
<path d="M84.7256 42.4876C84.8553 42.6017 84.9615 42.7402 85.0377 42.8953C85.1138 43.0503 85.1588 43.2189 85.1696 43.3913C85.1804 43.5637 85.1573 43.7365 85.1011 43.8997C85.045 44.0632 84.9572 44.2141 84.8426 44.3433L74.951 55.5493C74.8368 55.6793 74.6979 55.7853 74.5424 55.8613C74.387 55.9377 74.2181 55.9828 74.045 55.9936C73.8722 56.0048 73.6987 55.9817 73.5348 55.9257C73.3705 55.8698 73.2193 55.7823 73.0892 55.6677C72.828 55.437 72.6691 55.1123 72.6471 54.7651C72.6252 54.418 72.7418 54.0758 72.9719 53.8143L82.8657 42.606C83.097 42.3445 83.4225 42.1852 83.7711 42.1628C84.1196 42.1408 84.4628 42.2573 84.7256 42.4876Z" fill="#B9745E"/>
<path d="M82.4747 42.2923C82.5224 42.2383 82.5871 42.202 82.6579 42.1897L84.9567 41.7711C85.0037 41.7623 85.0518 41.7642 85.098 41.7762C85.1441 41.7885 85.1872 41.8109 85.2238 41.8413C85.2603 41.8722 85.2892 41.9108 85.3092 41.954C85.3288 41.9976 85.3388 42.0446 85.338 42.0925L85.2899 44.5017C85.2892 44.5773 85.2607 44.6502 85.2103 44.7069L81.9357 48.4063C81.9076 48.438 81.8737 48.4638 81.836 48.4827C81.798 48.5016 81.7568 48.5124 81.7145 48.5155C81.6721 48.5182 81.6298 48.5124 81.5898 48.4989C81.5498 48.4854 81.5125 48.4642 81.4809 48.4364L79.2251 46.4503C79.1932 46.4226 79.167 46.3886 79.1482 46.3508C79.1293 46.3126 79.1185 46.2714 79.1159 46.2293C79.1132 46.1869 79.1193 46.1445 79.1332 46.1047C79.147 46.0646 79.1689 46.028 79.197 45.9963L82.4747 42.2923Z" fill="#8697FF"/>
<path d="M73.145 51.4365C74.282 52.5574 75.2396 53.5429 74.8699 54.9612C74.6325 55.8599 72.9357 57.6196 71.6803 56.3471C71.6803 56.3471 67.236 51.5291 68.7173 50.2053C69.9778 49.0774 72.0081 50.3152 73.145 51.4365Z" fill="#760064"/>
<path d="M74.9636 57.37C76.6472 56.9302 77.6553 55.2111 77.2151 53.5301C76.775 51.8491 75.0532 50.8432 73.3696 51.2829C71.6859 51.7226 70.6775 53.4418 71.118 55.1228C71.5582 56.8037 73.2799 57.8097 74.9636 57.37Z" fill="#760064"/>
<path d="M70.8182 55.6714C68.9799 54.0625 68.0099 48.5162 68.8167 47.8721C69.6236 47.2279 73.1175 51.283 73.1175 51.283C72.9047 52.2396 71.3799 54.8672 70.8182 55.6714Z" fill="#DF5233"/>
<path d="M60.706 45.69C60.706 45.69 62.5436 42.4402 68.4034 45.295C71.586 46.8448 70.5491 50.3476 70.5491 50.3476C70.5491 50.3476 69.8947 53.6659 69.1571 55.2173C68.4195 56.7683 67.9951 57.9563 66.3226 58.4921C64.6501 59.0278 62.2058 57.456 60.7191 56.7525L59.526 56.1882C57.6173 55.2848 57.0063 53.4958 58.0774 51.2432L60.706 45.69Z" fill="#DF5233"/>
<path d="M62.2269 55.7695C63.2649 56.7365 63.3665 58.6716 63.071 58.9879L60.0553 60.5324C60.1338 60.7758 60.1377 61.0353 60.0665 61.2776C59.9949 61.5198 59.8518 61.7335 59.6556 61.8909C58.9638 62.444 58.4009 61.7489 57.1243 60.5594C55.8477 59.3698 55.4264 59.0604 55.3987 58.4576C55.3706 57.8547 57.646 56.6647 58.1374 56.139C60.08 55.405 60.4393 54.1035 62.2269 55.7695Z" fill="#760064"/>
<path d="M55.9486 57.2033C55.8928 57.1516 55.8566 57.0818 55.8466 57.0065C55.8366 56.9309 55.8531 56.8542 55.8935 56.7898L61.2681 48.9924C61.3551 48.8508 63.6474 44.508 67.4841 45.458C71.3205 46.4084 71.2882 48.7698 71.2693 48.9881L70.6491 60.5594C70.6464 60.6346 70.6175 60.7064 70.5671 60.7627C70.5171 60.8186 70.4486 60.8557 70.374 60.8665C69.5672 60.9845 68.7519 61.0327 67.9366 61.0111C67.8912 61.0096 67.8462 60.9988 67.8054 60.9791C67.7642 60.9594 67.7273 60.9316 67.6977 60.8969C67.6681 60.8626 67.6457 60.8225 67.6323 60.7789C67.6188 60.7353 67.6146 60.6894 67.6196 60.6443L67.6873 59.9781C67.6954 59.891 67.6696 59.8038 67.6153 59.7351C67.5611 59.6665 67.4822 59.6213 67.3953 59.6094L65.5435 59.2985C65.4615 59.2904 65.3792 59.312 65.3118 59.3602C65.2449 59.408 65.1976 59.479 65.1791 59.5592L64.9833 60.3461C64.9709 60.3928 64.9494 60.4364 64.9194 60.4742C64.8898 60.5124 64.8524 60.5436 64.8101 60.5664C64.7674 60.5895 64.7209 60.6034 64.6728 60.6076C64.6247 60.6115 64.5762 60.6057 64.5304 60.5903C63.8463 60.3639 62.7067 60.105 62.0834 59.8528C62.0134 59.8235 61.9564 59.7699 61.9233 59.7012C61.8903 59.6329 61.8829 59.555 61.9037 59.4817L62.0884 58.7388C62.108 58.6613 62.0992 58.5795 62.0645 58.5078C62.0295 58.436 61.9707 58.3785 61.8976 58.3458L59.5644 57.4119C59.4909 57.3788 59.4078 57.3737 59.3305 57.3969C58.8396 57.545 58.4748 58.0812 57.9508 58.2324C57.8715 58.2555 57.7865 58.2486 57.7119 58.2138C56.6811 57.7275 56.3695 57.5793 55.9486 57.2033Z" fill="#DF5233"/>
<path fill-rule="evenodd" clip-rule="evenodd" d="M71.0498 57.6067C71.0455 57.653 71.0321 57.6981 71.0094 57.7386C70.9867 57.7795 70.9555 57.8154 70.9178 57.8439C70.8805 57.8724 70.837 57.8933 70.7904 57.9052C70.7439 57.9168 70.695 57.9195 70.6469 57.9126L70.1933 57.8763C66.9933 57.658 63.8272 56.7785 61.4903 55.9681C60.3133 55.5623 59.3368 55.1624 58.6393 54.8727C58.2949 54.7273 58.0213 54.6054 57.8359 54.5182L57.5816 54.3982C57.54 54.3739 57.5042 54.3419 57.4758 54.3037C57.4473 54.2656 57.4273 54.2227 57.4169 54.1772C57.4061 54.1317 57.4054 54.0846 57.4146 54.0395C57.4238 53.994 57.4423 53.9508 57.4696 53.913C57.6281 53.653 57.8447 53.3174 57.994 53.0714C58.0379 52.9977 58.1083 52.9425 58.1922 52.9167C58.2761 52.8908 58.3676 52.8959 58.4492 52.931L58.6539 53.0224C58.8247 53.0999 59.0775 53.2145 59.3984 53.351C60.0455 53.6256 60.9755 53.9975 62.0866 54.3817C64.327 55.1573 67.2634 55.9666 70.1625 56.1618L70.6435 56.1803C70.7493 56.1799 70.852 56.2188 70.9301 56.289C71.0086 56.3589 71.0563 56.4549 71.0636 56.5567L71.0498 57.6067Z" fill="#C2382B"/>
<path d="M61.6773 53.9508L61.0324 55.9044C60.9082 56.2809 61.1128 56.6871 61.4899 56.8109L63.4652 57.4601C63.8423 57.5839 64.249 57.3791 64.3732 57.0022L65.0181 55.0489C65.1423 54.6721 64.9377 54.2663 64.5606 54.1425L62.5853 53.4933C62.2082 53.3691 61.8016 53.5743 61.6773 53.9508Z" fill="#F7BD68"/>
<path d="M61.2985 48.4105C62.4966 49.9958 57.2017 53.8669 57.2017 53.8669C55.7258 54.8756 54.4003 52.8208 54.3433 51.8951C54.2495 50.4274 55.3806 49.6556 56.7184 48.7684C58.0558 47.8809 60.2924 47.0716 61.2985 48.4105Z" fill="#760064"/>
<path d="M53.2623 53.7501C54.5862 54.8772 56.575 54.7183 57.7042 53.3957C58.8338 52.073 58.6761 50.0873 57.3522 48.9606C56.0282 47.8335 54.0395 47.9921 52.9102 49.3147C51.7806 50.6374 51.9383 52.6234 53.2623 53.7501Z" fill="#760064"/>
<path d="M64.2599 47.9223C66.3256 50.389 59.237 52.9622 59.237 52.9622C58.3717 52.134 57.1739 50.0029 56.873 48.5595C58.5621 47.3075 62.1899 45.4626 64.2599 47.9223Z" fill="#DF5233"/>
<path d="M75.3298 52.9165C75.6434 52.9874 75.9162 53.1799 76.0882 53.4515C76.2605 53.723 76.3179 54.0513 76.2482 54.3648C76.2136 54.5207 76.1486 54.6676 76.0566 54.798C75.9647 54.9284 75.8481 55.0391 75.7134 55.1243C75.5784 55.2096 75.4283 55.2674 75.271 55.2944C75.1136 55.3218 74.9524 55.3176 74.797 55.2821L74.7308 55.2671C74.575 55.2323 74.4276 55.1675 74.2972 55.0757C74.1667 54.9843 74.0555 54.8678 73.9701 54.7332C73.8847 54.5986 73.827 54.4485 73.7997 54.2916C73.7728 54.1346 73.777 53.9737 73.8124 53.8183C73.8832 53.5055 74.0755 53.2331 74.3468 53.0615C74.6184 52.8898 74.947 52.8324 75.2606 52.9018L75.3298 52.9165Z" fill="#B9745E"/>
<path d="M60.8939 45.5233C64.8195 43.6672 71.0636 48.4806 71.5726 48.9867C72.0816 49.4927 72.4218 50.9986 72.0285 51.5714C71.6357 52.1446 69.6854 54.6113 68.4327 54.2745C66.8225 53.8421 58.0202 48.9562 58.121 47.7632C58.3322 46.9717 59.6454 46.0521 60.8939 45.5233Z" fill="#4F8BE4"/>
<path d="M60.1244 30.8325C61.4806 30.2094 65.3158 33.1753 66.7694 35.05C66.7694 35.05 70.3118 39.1374 65.9545 43.0722C61.5972 47.0069 58.1006 42.8519 58.1006 42.8519C58.1444 39.4738 58.5715 31.5413 60.1244 30.8325Z" fill="#760064"/>
<path d="M75.7612 31.7758C74.4457 31.5369 72.6501 33.3054 71.5347 34.5344C71.5347 34.5344 67.8442 40.3336 73.4192 42.8763C77.2479 44.6267 77.3475 40.3618 77.3475 40.3618C77.4983 38.0144 76.9312 31.9901 75.7612 31.7758Z" fill="#760064"/>
<path d="M59.2034 32.3633C59.2034 32.3633 58.1938 35.0425 58.0449 43.885L65.4783 44.4705L62.2022 38.2943L59.2034 32.3633Z" fill="#B72196"/>
<path d="M77.5533 45.2613C78.09 39.3393 73.7939 34.4546 69.0853 34.0318C61.8844 33.3853 57.4697 39.7624 58.1115 44.7988C58.6967 49.4062 66.4979 49.9605 70.5847 49.8371C74.5038 49.7198 77.2867 48.2012 77.5533 45.2613Z" fill="#B72196"/>
<path d="M71.2963 41.2239C71.2409 39.4959 72.1528 38.0694 73.3336 38.0377C74.5144 38.0058 75.5147 39.3813 75.5701 41.109C75.6259 42.837 74.7114 44.263 73.5329 44.2954C72.3548 44.3274 71.3517 42.9543 71.2963 41.2239Z" fill="#F5F5F5"/>
<path d="M72.8926 43.3789C72.227 43.404 71.6499 42.4536 71.5941 41.2559C71.5383 40.0579 72.0366 39.0666 72.7022 39.0415C73.3674 39.0164 73.9449 39.9641 74.0034 41.1622C74.0619 42.3599 73.5579 43.3539 72.8926 43.3789Z" fill="#070645"/>
<path d="M70.5526 41.7535C71.369 41.6729 73.8411 42.4756 74.7833 44.5192C75.726 46.5631 68.059 50.4639 66.3261 46.5754C65.5228 44.7803 68.1783 41.9803 70.5526 41.7535Z" fill="#B72196"/>
<path d="M73.4159 43.862C73.3759 44.3037 72.4252 45.2178 71.8092 45.1627C71.1932 45.1071 70.441 44.0402 70.481 43.5986C70.521 43.1565 70.8631 42.8376 72.0239 42.9417C73.1847 43.0458 73.4559 43.42 73.4159 43.862Z" fill="#760064"/>
<path fill-rule="evenodd" clip-rule="evenodd" d="M64.0059 45.064C64.111 45.3363 63.9755 45.6422 63.7031 45.7475L61.3658 46.6508C61.0934 46.7561 60.7871 46.6211 60.6821 46.3492C60.577 46.0773 60.7125 45.7714 60.9849 45.6661L63.3222 44.7623C63.5946 44.657 63.9005 44.792 64.0059 45.064Z" fill="#760064"/>
<path fill-rule="evenodd" clip-rule="evenodd" d="M65.4333 45.964C65.6456 46.1642 65.6553 46.4983 65.4548 46.7104L63.9462 48.3084C63.7457 48.521 63.4114 48.5306 63.199 48.3308C62.9866 48.1306 62.977 47.7966 63.1775 47.5844L64.6861 45.986C64.8865 45.7739 65.2209 45.7642 65.4333 45.964Z" fill="#760064"/>
<path fill-rule="evenodd" clip-rule="evenodd" d="M68.6572 44.5118C69.0223 44.518 69.3124 44.8189 69.3058 45.1834C69.3047 45.2455 69.3643 45.4376 69.5648 45.5976C69.7372 45.735 69.9692 45.8094 70.2581 45.7238C70.6078 45.62 70.9757 45.8194 71.0792 46.1689C71.1827 46.5184 70.983 46.8856 70.6332 46.9893C69.8857 47.2111 69.212 47.0059 68.7403 46.6298C68.2966 46.2765 67.9742 45.7222 67.9846 45.1598C67.9912 44.7953 68.2924 44.5053 68.6572 44.5118Z" fill="#070645"/>
<path d="M62.7657 40.6982C62.9416 38.7604 64.4267 37.303 66.0931 37.4474C67.7594 37.5917 68.9779 39.2811 68.8094 41.2274C68.6409 43.1738 67.1484 44.6226 65.4821 44.4806C63.8153 44.3391 62.6084 42.6403 62.7657 40.6982Z" fill="#F5F5F5"/>
<path d="M65.3012 43.2224C64.3497 43.153 63.6622 42.0151 63.7603 40.6986C63.8584 39.3821 64.7125 38.3613 65.661 38.4333C66.6098 38.5052 67.3027 39.641 67.2019 40.957C67.1011 42.2735 66.2496 43.2945 65.3012 43.2224Z" fill="#070645"/>
<path d="M39.1734 7.50633C39.6122 7.50633 39.968 7.14989 39.968 6.7102C39.968 6.2705 39.6122 5.91406 39.1734 5.91406C38.7346 5.91406 38.3789 6.2705 38.3789 6.7102C38.3789 7.14989 38.7346 7.50633 39.1734 7.50633Z" fill="#D0C6AC"/>
<path d="M3.59531 28.7798C4.03412 28.7798 4.38985 28.4233 4.38985 27.9836C4.38985 27.5439 4.03412 27.1875 3.59531 27.1875C3.15651 27.1875 2.80078 27.5439 2.80078 27.9836C2.80078 28.4233 3.15651 28.7798 3.59531 28.7798Z" fill="#D0C6AC"/>
<path d="M35.7103 5.34768C36.2779 5.34768 36.738 4.8864 36.738 4.31739C36.738 3.74838 36.2779 3.28711 35.7103 3.28711C35.1427 3.28711 34.6826 3.74838 34.6826 4.31739C34.6826 4.8864 35.1427 5.34768 35.7103 5.34768Z" fill="#D0C6AC"/>
<path d="M19.6888 11.1477C18.6674 11.8232 17.293 11.5407 16.6192 10.5167L9.90844 0.318901C9.23459 -0.70512 9.51638 -2.0829 10.5378 -2.75846L20.71 -9.48613C21.7314 -10.1617 23.1057 -9.87922 23.7795 -8.85521L30.4903 1.34264C31.1641 2.36666 30.8824 3.74444 29.8609 4.42L19.6888 11.1477Z" fill="#1B40BC"/>
<path d="M21.055 10.3748C20.0336 11.0504 18.6592 10.7679 17.9854 9.74383L11.2746 -0.453974C10.6008 -1.47799 10.8826 -2.85577 11.904 -3.53133L20.689 -9.34158C21.7105 -10.0172 23.0848 -9.73467 23.7586 -8.71066L30.4694 1.48717C31.1432 2.51119 30.8615 3.88896 29.84 4.56455L21.055 10.3748Z" fill="#264FDD"/>
<path fill-rule="evenodd" clip-rule="evenodd" d="M21.2803 3.96384C20.8972 4.21719 20.3819 4.11123 20.1292 3.72723L17.9939 0.482472C16.8989 -1.18156 17.3568 -3.42046 19.0166 -4.51823C20.6765 -5.61603 22.9097 -5.15698 24.0047 -3.49297L24.7673 -2.33413C25.02 -1.95012 24.9144 -1.43345 24.5313 -1.18011C24.1483 -0.926779 23.6329 -1.03271 23.3802 -1.41672L22.6176 -2.57556C22.028 -3.47158 20.8255 -3.71875 19.9317 -3.12763C19.038 -2.53651 18.7914 -1.33095 19.381 -0.434937L21.5163 2.80982C21.769 3.19383 21.6633 3.7105 21.2803 3.96384Z" fill="#345FF3"/>
<path d="M22.0661 5.05457L18.6914 3.96008L22.3904 1.51367L22.0661 5.05457Z" fill="#345FF3"/>
<path fill-rule="evenodd" clip-rule="evenodd" d="M18.1447 4.03362C18.116 3.82208 18.2108 3.61279 18.3885 3.49524L22.0875 1.04882C22.2652 0.931263 22.4945 0.926256 22.6772 1.03593C22.8598 1.14561 22.9636 1.35056 22.9441 1.56313L22.6198 5.10404C22.6044 5.27202 22.5137 5.42388 22.3733 5.5168C22.2328 5.60968 22.0578 5.63356 21.8977 5.5816L18.5231 4.48715C18.3205 4.42142 18.1734 4.24511 18.1447 4.03362ZM21.5799 4.31122L21.7356 2.61215L19.9606 3.78605L21.5799 4.31122Z" fill="#345FF3"/>
<path d="M51.7787 17.1683C53.0522 19.8295 56.408 20.1844 59.6957 19.1037L64.637 14.6204C65.0907 13.3329 66.5573 11.2693 65.345 9.24288C65.1615 8.93654 64.7625 8.85257 64.4624 9.04493C62.9103 10.039 62.3886 11.5382 62.1223 12.5207C61.4432 10.6247 59.4183 8.66194 57.5799 8.46241C57.311 8.43321 57.0609 8.59325 56.964 8.84651C56.0933 11.1217 57.4576 14.3882 58.5672 15.7015C57.4218 14.6282 53.9771 14.3066 51.9014 16.4286C51.7098 16.6247 51.6602 16.9207 51.7787 17.1683Z" fill="#2E2CA7"/>
<path d="M70.7985 17.2574C71.6908 19.2719 70.807 22.4502 69.5385 24.9984C68.4689 27.146 67.5793 28.3182 66.6544 28.6711C65.7294 29.0239 64.8007 29.0605 63.7484 28.8984C61.027 28.4789 57.4354 27.2066 55.9237 24.6994C53.0377 19.9127 56.1788 15.8477 60.2933 14.0155C64.4082 12.1833 68.8621 12.8867 70.7985 17.2574Z" fill="#FF1F70"/>
<path fill-rule="evenodd" clip-rule="evenodd" d="M67.5619 17.7318C67.9059 17.6984 68.3314 17.3976 68.5326 17.1893C68.7338 16.9809 69.1201 16.5546 69.1147 16.2979C68.6088 16.302 67.8581 15.656 67.3784 15.7568L67.9474 16.8814C67.9078 16.9152 67.8678 16.9457 67.8285 16.9717C67.7354 17.0337 67.6646 17.0582 67.6204 17.0625C67.4534 17.0787 67.3307 17.2278 67.3472 17.3954C67.3634 17.563 67.3945 17.7481 67.5619 17.7318Z" fill="#070645"/>
<path fill-rule="evenodd" clip-rule="evenodd" d="M66.6419 16.5466C66.6892 16.3032 66.7954 16.1301 67.0259 16.0601C67.1278 16.0293 67.2656 16.0283 67.4937 16.1159C67.7296 16.2065 68.0216 16.3759 68.4087 16.6389C68.6172 16.7806 68.9008 16.726 69.0424 16.5169C69.1836 16.3078 69.1293 16.0234 68.9204 15.8817C68.5218 15.6107 68.1582 15.3915 67.82 15.2617C67.4745 15.129 66.9478 15.0524 66.59 15.161C65.9082 15.3679 65.5623 15.9808 65.4803 16.4008C65.4072 16.7735 65.5369 17.1706 66.1367 17.0705C66.3849 17.0292 66.6688 17.2629 66.6288 17.0145L66.6284 17.0108C66.6277 17.0062 66.6265 16.9978 66.6254 16.986C66.6227 16.9624 66.6196 16.926 66.618 16.8807C66.6146 16.7881 66.6181 16.6679 66.6419 16.5466Z" fill="#070645"/>
<path fill-rule="evenodd" clip-rule="evenodd" d="M63.7574 28.9006C61.6682 28.5797 59.0639 27.7559 57.2817 26.2559C57.2252 24.2189 58.8415 22.4944 60.9345 22.3827C63.0607 22.2692 64.8732 23.8619 64.9836 25.9403C65.0452 27.0997 64.5639 28.1653 63.7574 28.9006Z" fill="#DB004F"/>
<path fill-rule="evenodd" clip-rule="evenodd" d="M63.7574 28.9006C61.6682 28.5797 59.0639 27.7559 57.2817 26.2559C57.2252 24.2189 58.8415 22.4944 60.9345 22.3827C63.0607 22.2692 64.8732 23.8619 64.9836 25.9403C65.0452 27.0997 64.5639 28.1653 63.7574 28.9006Z" fill="#DB004F"/>
<path fill-rule="evenodd" clip-rule="evenodd" d="M63.7574 28.9006C61.6682 28.5797 59.0639 27.7559 57.2817 26.2559C57.2252 24.2189 58.8415 22.4944 60.9345 22.3827C63.0607 22.2692 64.8732 23.8619 64.9836 25.9403C65.0452 27.0997 64.5639 28.1653 63.7574 28.9006Z" fill="#DB004F"/>
<path fill-rule="evenodd" clip-rule="evenodd" d="M63.7574 28.9006C61.6682 28.5797 59.0639 27.7559 57.2817 26.2559C57.2252 24.2189 58.8415 22.4944 60.9345 22.3827C63.0607 22.2692 64.8732 23.8619 64.9836 25.9403C65.0452 27.0997 64.5639 28.1653 63.7574 28.9006Z" fill="#EA0458"/>
<path fill-rule="evenodd" clip-rule="evenodd" d="M61.0239 18.8631C60.8958 18.8116 60.7188 18.7815 60.4968 18.8807C60.3998 18.924 60.2948 19.0136 60.1794 19.2296C60.0601 19.4527 59.9497 19.7724 59.8285 20.2251C59.7634 20.469 59.513 20.6137 59.2698 20.5482C59.0263 20.4827 58.882 20.2319 58.9474 19.9879C59.0724 19.5214 59.204 19.1173 59.3752 18.7974C59.5503 18.4703 59.755 18.2106 60.1436 17.987C60.593 17.7284 61.2251 17.7046 61.5325 17.8279C61.8569 17.9579 61.9954 18.3011 61.6283 18.6745C61.4529 18.8529 61.404 19.1561 61.224 18.9831C61.2236 18.9824 61.222 18.9811 61.2197 18.9791C61.2132 18.9735 61.2005 18.9631 61.1824 18.9502C61.1459 18.9239 61.0916 18.8902 61.0239 18.8631Z" fill="#070645"/>
<path fill-rule="evenodd" clip-rule="evenodd" d="M61.1826 20.4953C60.9006 20.6955 60.3823 20.747 60.0942 20.7214C59.806 20.6957 59.2358 20.6266 59.0723 20.4289C59.4574 20.1003 59.604 19.1194 60.033 18.8809L60.3362 20.1047C60.3881 20.1043 60.4381 20.1012 60.4847 20.0952C60.5959 20.0809 60.6651 20.0532 60.7017 20.0274C60.8387 19.93 61.0283 19.9625 61.1257 20.0999C61.2226 20.2373 61.3196 20.3979 61.1826 20.4953Z" fill="#070645"/>
<path fill-rule="evenodd" clip-rule="evenodd" d="M71.0652 18.1387C71.4414 20.1251 70.6315 22.7993 69.5342 25.0019C68.5558 24.3662 67.8875 23.3014 67.8217 22.0647C67.7182 20.1208 69.141 18.4407 71.0652 18.1387Z" fill="#DB004F"/>
<path fill-rule="evenodd" clip-rule="evenodd" d="M71.0652 18.1387C71.4414 20.1251 70.6315 22.7993 69.5342 25.0019C68.5558 24.3662 67.8875 23.3014 67.8217 22.0647C67.7182 20.1208 69.141 18.4407 71.0652 18.1387Z" fill="#DB004F"/>
<path fill-rule="evenodd" clip-rule="evenodd" d="M71.0652 18.1387C71.4414 20.1251 70.6315 22.7993 69.5342 25.0019C68.5558 24.3662 67.8875 23.3014 67.8217 22.0647C67.7182 20.1208 69.141 18.4407 71.0652 18.1387Z" fill="#DB004F"/>
<path fill-rule="evenodd" clip-rule="evenodd" d="M71.0652 18.1387C71.4414 20.1251 70.6315 22.7993 69.5342 25.0019C68.5558 24.3662 67.8875 23.3014 67.8217 22.0647C67.7182 20.1208 69.141 18.4407 71.0652 18.1387Z" fill="#EA0458"/>
<path d="M60.2738 20.7797C59.6705 20.0031 59.7128 18.9583 60.3688 18.4463C61.0244 17.9342 62.0455 18.1487 62.6488 18.9254C63.2521 19.702 63.2094 20.7467 62.5534 21.2588C61.8978 21.7708 60.8771 21.5563 60.2738 20.7797Z" fill="#070645"/>
<path d="M60.2738 20.7797C59.6705 20.0031 59.7128 18.9583 60.3688 18.4463C61.0244 17.9342 62.0455 18.1487 62.6488 18.9254C63.2521 19.702 63.2094 20.7467 62.5534 21.2588C61.8978 21.7708 60.8771 21.5563 60.2738 20.7797Z" fill="#F5F5F5"/>
<path d="M61.7135 20.8408C61.2903 21.0547 60.7051 20.7509 60.4069 20.1623C60.1083 19.5736 60.2095 18.923 60.6327 18.7091C61.056 18.4952 61.6408 18.799 61.9393 19.3877C62.2379 19.9764 62.1367 20.627 61.7135 20.8408Z" fill="#070645"/>
<path d="M65.8154 17.8177C65.5319 16.8782 65.8997 15.9164 66.6369 15.6695C67.3741 15.4226 68.2017 15.9841 68.4856 16.9236C68.7692 17.8631 68.4014 18.8249 67.6642 19.0718C66.927 19.3188 66.099 18.7573 65.8154 17.8177Z" fill="#F5F5F5"/>
<path d="M67.2052 18.4208C66.7424 18.5244 66.2499 18.0865 66.1056 17.4427C65.961 16.7989 66.2191 16.193 66.682 16.0894C67.1448 15.9858 67.6369 16.4237 67.7816 17.0675C67.9263 17.7113 67.6681 18.3172 67.2052 18.4208Z" fill="#070645"/>
<path d="M66.9712 20.112C67.608 20.5576 67.7099 22.2459 66.6615 22.7893C65.2167 23.5455 63.5046 22.0427 63.8782 21.1742C64.2518 20.3058 65.0248 20.8117 65.5819 20.5794C66.1386 20.347 66.2502 19.6075 66.9712 20.112Z" fill="#070645"/>
<path fill-rule="evenodd" clip-rule="evenodd" d="M64.6496 22.1691C65.1139 21.7022 65.8592 21.6896 66.3148 22.1411C66.5006 22.3256 66.6095 22.5589 66.6414 22.8022C65.8534 23.2028 64.9889 22.9373 64.4287 22.4731C64.4845 22.3639 64.5584 22.2611 64.6496 22.1691Z" fill="#81004C"/>
<path d="M33.8783 51.5137L-5.87081 66.7551C-9.70689 73.0821 -5.26921 98.9378 -5.26921 98.9378H102.64L98.5299 76.4282V61.3257L83.4326 62.4852L64.3313 56.5713L42.7734 59.3739L33.8783 51.5137Z" fill="#09084F"/>
<path d="M94.9453 95.5128C95.594 96.0849 96.562 96.0444 97.1076 95.4226L102.54 89.2302C103.086 88.6084 103.002 87.6406 102.354 87.069L95.8937 81.3726C95.245 80.8006 94.277 80.8411 93.7314 81.4629L88.2987 87.6549C87.7532 88.2767 87.8367 89.2445 88.4853 89.8165L94.9453 95.5128Z" fill="#51178B"/>
<path d="M0.10249 92.7277C0.751161 93.2997 1.71925 93.2592 2.26478 92.6374L7.6975 86.4454C8.24304 85.8236 8.15943 84.8559 7.51078 84.2838L1.0509 78.5875C0.402231 78.0155 -0.565859 78.056 -1.11139 78.6777L-6.54411 84.8697C-7.08965 85.4915 -7.00604 86.4593 -6.35739 87.0313L0.10249 92.7277Z" fill="#006446"/>
<path d="M33.8962 51.3398L-5.90615 65.1784C-7.49925 67.8059 -4.70827 69.8618 -4.70827 69.8618L32.5942 53.258L40.6278 62.2195L64.1403 57.4319L83.3951 63.048L96.8021 67.5622L98.5301 61.3258H85.5013L64.1403 56.2208L42.7732 59.3737L33.8962 51.3398Z" fill="#FFFACA"/>
<path d="M93.3706 71.9472C92.4072 71.4666 91.2379 71.86 90.7589 72.8255L85.9864 82.4415C85.5074 83.4074 85.8999 84.5796 86.8629 85.0598L96.4547 89.8439C97.4178 90.3245 98.587 89.9311 99.0664 88.9656L103.838 79.3496C104.318 78.3837 103.925 77.2115 102.962 76.7313L93.3706 71.9472Z" fill="#00456B"/>
<path d="M93.8607 70.953C92.8976 70.4724 91.7284 70.8658 91.249 71.8313L86.4769 81.4474C85.9975 82.4128 86.39 83.5854 87.3534 84.0656L95.637 88.1975C96.6001 88.6777 97.7693 88.2847 98.2487 87.3188L103.021 77.7028C103.5 76.7373 103.108 75.5651 102.144 75.0845L93.8607 70.953Z" fill="#0070AE"/>
<path fill-rule="evenodd" clip-rule="evenodd" d="M91.7297 82.9617L96.541 80.915C96.3925 80.4599 96.2975 80.1694 96.2347 79.9789L93.967 80.7418C93.7327 80.8205 93.4792 80.694 93.4007 80.4591C93.3222 80.2242 93.4484 79.97 93.6827 79.8913L95.9454 79.1303C95.88 78.9382 95.7842 78.6539 95.6407 78.2246L90.5647 79.4647C90.3746 79.511 90.2196 79.6475 90.1495 79.8304L89.5636 81.3532C89.4597 81.6228 89.5632 81.9283 89.809 82.0787L91.1857 82.9215C91.3499 83.0218 91.5523 83.0369 91.7297 82.9617Z" fill="#009AF1"/>
<path d="M89.388 58.4297C89.9556 58.4297 90.4157 57.9684 90.4157 57.3994C90.4157 56.8304 89.9556 56.3691 89.388 56.3691C88.8205 56.3691 88.3604 56.8304 88.3604 57.3994C88.3604 57.9684 88.8205 58.4297 89.388 58.4297Z" fill="#EADAB0"/>
<path d="M10.595 84.249L14.2465 84.1622L14.4631 88.3963L13.2112 88.6003L13.1419 85.452L11.7385 85.3953L11.6259 88.635L10.4434 88.3353L10.595 84.249ZM16.2711 84.1969L16.3057 84.605C16.7446 84.3967 17.0955 84.2852 17.3583 84.271C17.9705 84.2563 18.4325 84.5834 18.7444 85.2522C18.8281 85.4779 18.8685 85.7529 18.8657 86.0773C18.8917 86.9255 18.6448 87.5465 18.125 87.9403C17.9892 88.0703 17.7582 88.1444 17.4319 88.1617C17.1345 88.1791 16.863 88.1602 16.6176 88.105L16.7692 90.5197L15.3917 90.3762L15.0452 86.2729L14.885 84.4835C15.0062 84.4256 15.4683 84.33 16.2711 84.1969ZM16.4183 85.5951L16.4963 86.7241L16.5136 87.0412L16.9771 87.0979C17.4189 87.0659 17.6355 86.794 17.6268 86.2813C17.5835 85.7051 17.3236 85.4432 16.8471 85.4952L16.4183 85.5951ZM21.501 84.1622C22.2316 84.1768 22.7427 84.5039 23.0344 85.1435C23.1181 85.3984 23.1528 85.6808 23.1384 85.9905C23.1384 86.7114 22.8828 87.3903 22.3717 88.0271C21.9587 88.4325 21.4317 88.635 20.7906 88.635C20.0427 88.5741 19.5561 88.1644 19.3309 87.4061C19.2616 87.16 19.2284 86.8808 19.2313 86.5679C19.315 85.4389 19.8333 84.6775 20.7863 84.2837C21.0375 84.2027 21.2758 84.1622 21.501 84.1622ZM20.4701 86.6767C20.5163 87.0817 20.7011 87.2846 21.0245 87.2846C21.3219 87.2846 21.6223 87.0717 21.9255 86.6462C22.0237 86.4607 22.067 86.232 22.0554 85.96C22.0554 85.5546 21.8793 85.3521 21.527 85.3521C21.1631 85.3521 20.8368 85.6171 20.5481 86.1467C20.4845 86.3261 20.4585 86.5027 20.4701 86.6767ZM26.6357 84.2143C26.5952 84.5008 26.5461 84.8441 26.4884 85.2434C25.5412 85.3274 24.9766 85.4115 24.7947 85.4952C24.9362 86.7982 25.0113 87.8489 25.02 88.6481C24.6648 88.7318 24.2836 88.7449 23.8764 88.6871L23.5732 84.5529C24.2172 84.2663 25.238 84.1537 26.6357 84.2143ZM28.4393 84.1969L28.474 84.605C28.9129 84.3967 29.2638 84.2852 29.5266 84.271C30.1387 84.2563 30.6008 84.5834 30.9127 85.2522C30.9964 85.4779 31.0368 85.7529 31.0339 86.0773C31.0599 86.9255 30.813 87.5465 30.2932 87.9403C30.1575 88.0703 29.9265 88.1444 29.6002 88.1617C29.3027 88.1791 29.0313 88.1602 28.7858 88.105L28.9375 90.5197L27.56 90.3762L27.2135 86.2729L27.0532 84.4835C27.1745 84.4256 27.6365 84.33 28.4393 84.1969ZM28.5866 85.5951L28.6646 86.7241L28.6819 87.0412L29.1453 87.0979C29.5872 87.0659 29.8038 86.794 29.7951 86.2813C29.7518 85.7051 29.4919 85.4432 29.0154 85.4952L28.5866 85.5951ZM33.7689 84.1317C34.4706 84.1001 34.9052 84.6312 35.0727 85.7255C35.2084 86.7041 35.3037 87.5565 35.3586 88.2832L33.9768 88.7002L33.9291 88.4267C33.5307 88.5829 33.1062 88.6597 32.6557 88.6566C31.9251 88.5266 31.5323 88.085 31.4775 87.3324C31.4775 86.6983 31.8919 86.3307 32.7206 86.2293C33.0787 86.183 33.418 86.1814 33.7386 86.225C33.7154 85.695 33.6274 85.42 33.4743 85.4C33.2029 85.3911 32.8463 85.6356 32.4044 86.1336L31.4688 85.4347C32.0666 84.546 32.8333 84.1117 33.7689 84.1317ZM32.66 87.4539C32.712 87.5666 32.8593 87.6248 33.1018 87.6275C33.304 87.6217 33.5451 87.5901 33.8252 87.5318L33.7775 87.0458L33.353 87.0501C32.8679 87.0528 32.6369 87.1874 32.66 87.4539ZM36.7161 84.1927H37.5217L38.4011 86.0337L39.289 84.1927H40.1512L41.377 87.7752L40.0989 88.6219L39.4798 86.6852L38.7434 88.6134L38.0199 88.5872L37.4655 86.6983L36.9197 88.7827L35.7155 88.0356L36.7161 84.1927ZM42.6867 84.1927H43.4924L44.3715 86.0337L45.2595 84.1927H46.1218L47.3476 87.7752L46.0698 88.6219L45.4504 86.6852L44.714 88.6134L43.9906 88.5872L43.4362 86.6983L42.8902 88.7827L41.686 88.0356L42.6867 84.1927ZM47.8474 84.1795L49.017 84.2752L49.1513 85.8601L50.3902 84.3489H51.4121C51.3228 86.1031 51.2216 87.5376 51.1089 88.6524H50.052L49.9654 86.885L48.6184 88.6524H47.7912C47.7362 87.4424 47.755 85.9512 47.8474 84.1795ZM53.2593 84.1969L53.2939 84.605C53.7329 84.3967 54.0838 84.2852 54.3466 84.271C54.9587 84.2563 55.4208 84.5834 55.7324 85.2522C55.8163 85.4779 55.8567 85.7529 55.854 86.0773C55.8798 86.9255 55.6328 87.5465 55.113 87.9403C54.9776 88.0703 54.7463 88.1444 54.4201 88.1617C54.1226 88.1791 53.8514 88.1602 53.6059 88.105L53.7575 90.5197L52.3801 90.3762L52.0334 86.2729L51.873 84.4835C51.9946 84.4256 52.4563 84.33 53.2593 84.1969ZM53.4066 85.5951L53.4843 86.7241L53.5017 87.0412L53.9653 87.0979C54.407 87.0659 54.6236 86.794 54.6151 86.2813C54.5717 85.7051 54.3119 85.4432 53.8352 85.4952L53.4066 85.5951ZM58.4892 84.1622C59.2198 84.1768 59.7308 84.5039 60.0224 85.1435C60.1063 85.3984 60.1409 85.6808 60.1267 85.9905C60.1267 86.7114 59.8708 87.3903 59.3599 88.0271C58.947 88.4325 58.4199 88.635 57.7789 88.635C57.031 88.5741 56.5443 88.1644 56.3192 87.4061C56.2499 87.16 56.2165 86.8808 56.2195 86.5679C56.303 85.4389 56.8217 84.6775 57.7743 84.2837C58.0256 84.2027 58.2641 84.1622 58.4892 84.1622ZM57.4584 86.6767C57.5046 87.0817 57.6893 87.2846 58.0129 87.2846C58.3103 87.2846 58.6104 87.0717 58.9136 86.6462C59.0117 86.4607 59.0551 86.232 59.0436 85.96C59.0436 85.5546 58.8674 85.3521 58.5153 85.3521C58.1514 85.3521 57.8251 85.6171 57.5362 86.1467C57.4727 86.3261 57.4469 86.5027 57.4584 86.6767ZM62.6145 84.1838C63.2382 84.3751 63.5313 84.7442 63.494 85.2912C63.4332 85.5346 63.2066 85.7691 62.8138 85.9948L63.0692 86.0557C63.7279 86.2871 64.0773 86.6593 64.1177 87.1716C64.1408 87.5103 64.07 87.8142 63.9053 88.0834C63.4752 88.5756 62.4613 88.7623 60.8646 88.6435L60.5268 84.4619C61.1359 84.1433 61.8319 84.0507 62.6145 84.1838ZM61.718 85.1219L61.7311 85.5778C62.1697 85.4968 62.4082 85.3521 62.4456 85.1435C62.434 85.0829 62.3852 85.0424 62.2982 85.022C62.1339 84.993 61.9404 85.0262 61.718 85.1219ZM61.9562 87.5886C62.531 87.5276 62.8253 87.3772 62.8399 87.1369C62.863 87.0038 62.8122 86.9182 62.6883 86.8808C62.4486 86.814 62.1959 86.8372 61.93 86.9502L61.9562 87.5886ZM66.8483 84.1317C67.55 84.1001 67.9844 84.6312 68.1522 85.7255C68.2876 86.7041 68.383 87.5565 68.4381 88.2832L67.056 88.7002L67.0083 88.4267C66.6101 88.5829 66.1853 88.6597 65.7352 88.6566C65.0045 88.5266 64.6117 88.085 64.5567 87.3324C64.5567 86.6983 64.9711 86.3307 65.7998 86.2293C66.158 86.183 66.4974 86.1814 66.8179 86.225C66.7948 85.695 66.7067 85.42 66.5535 85.4C66.2823 85.3911 65.9256 85.6356 65.4839 86.1336L64.5482 85.4347C65.1457 84.546 65.9126 84.1117 66.8483 84.1317ZM65.7394 87.4539C65.7914 87.5666 65.9387 87.6248 66.1811 87.6275C66.3835 87.6217 66.6243 87.5901 66.9044 87.5318L66.8567 87.0458L66.4323 87.0501C65.9472 87.0528 65.7163 87.1874 65.7394 87.4539ZM71.2814 84.0449L72.3121 84.2231L72.728 87.9882L71.463 88.5914L71.3806 87.3278H70.1548L70.0425 88.6177C69.2626 88.3253 68.8467 88.1486 68.7947 88.0877L69.1371 84.2926L70.2979 84.119L70.2891 86.0164H71.3202L71.2814 84.0449ZM73.2409 84.1795L74.4101 84.2752L74.5444 85.8601L75.7833 84.3489H76.8056C76.716 86.1031 76.6152 87.5376 76.5024 88.6524H75.4455L75.3589 86.885L74.0119 88.6524H73.1843C73.1297 87.4424 73.1485 85.9512 73.2409 84.1795ZM78.5012 84.2536L78.8171 84.1795C79.5477 84.1421 80.1052 84.129 80.4892 84.1406L81.0048 88.6134L79.7097 88.6435L79.5535 87.1064L78.6397 88.7044L77.4443 88.2443L78.293 86.8156C77.6982 86.6678 77.3562 86.3492 77.2665 85.8601C77.2231 85.6808 77.2204 85.5126 77.2581 85.3564C77.5005 84.7627 77.9148 84.3952 78.5012 84.2536ZM79.3715 85.1481C79.0945 85.1654 78.8679 85.2075 78.6916 85.2738C78.5416 85.3464 78.4793 85.4563 78.5054 85.604C78.5485 85.8412 78.8506 85.9253 79.4107 85.8559L79.3715 85.1481Z" fill="white"/>
<path d="M17.7396 80.3554H12.9908L10.3135 66.3421L24.1187 64.1543L23.6727 69.9336H15.9364L17.7396 80.3554Z" fill="white"/>
<path d="M70.2432 80.0899V65.387H74.44L74.4346 73.3923L78.2606 68.9862L78.3156 65.1023L83.0334 64.8848L82.4478 80.1717L78.2421 80.6095L78.3156 73.0752L74.4346 76.2327L74.4462 79.6105L70.2432 80.0899Z" fill="white"/>
<path d="M38.7541 68.6706V65.3133L25.7441 64.8848L27.3031 79.4573L39.7117 77.9932L38.7191 74.8858L30.6718 76.1355L30.353 73.5639L36.2376 72.7427L35.9603 71.1265H30.0337L29.7855 68.6706H38.7541Z" fill="white"/>
<path fill-rule="evenodd" clip-rule="evenodd" d="M41.6159 79.5204L45.7512 78.7721L45.2802 73.635L52.6836 72.6842L52.3831 64.8965L40.584 66.6087L41.6159 79.5204ZM44.9601 71.6019L44.7824 69.0337L50.4036 68.2492L50.6171 70.7101L44.9601 71.6019Z" fill="white"/>
<path fill-rule="evenodd" clip-rule="evenodd" d="M54.5361 76.8806V67.0361L60.8407 63.8262L67.593 66.5012L68.0913 76.4524L60.8407 79.3415L54.5361 76.8806ZM64.4915 70.0166L59.6064 68.1752L58.082 74.209L63.2019 75.1884L64.4915 70.0166Z" fill="white"/>
</g>
<defs>
<linearGradient id="paint0_linear_700_52359" x1="62.1811" y1="-7.4484" x2="53.5662" y2="33.1838" gradientUnits="userSpaceOnUse">
<stop stop-color="white" stop-opacity="0"/>
<stop offset="0.0001" stop-color="white" stop-opacity="0"/>
<stop offset="0.3125" stop-color="#FFFCF6" stop-opacity="0.0780328"/>
<stop offset="1" stop-color="#FFDE88"/>
</linearGradient>
<linearGradient id="paint1_linear_700_52359" x1="-2.67349" y1="-0.518279" x2="32.9861" y2="32.8212" gradientUnits="userSpaceOnUse">
<stop offset="0.15625" stop-color="white" stop-opacity="0"/>
<stop offset="0.453125" stop-color="#FFF9EA" stop-opacity="0.175"/>
<stop offset="0.984375" stop-color="#FFDE88"/>
</linearGradient>
<linearGradient id="paint2_linear_700_52359" x1="94.4823" y1="-1.61888" x2="60.079" y2="33.0219" gradientUnits="userSpaceOnUse">
<stop offset="0.255208" stop-color="white" stop-opacity="0"/>
<stop offset="0.473958" stop-color="#FFF7E4" stop-opacity="0.228571"/>
<stop offset="0.9375" stop-color="#FFDE88"/>
</linearGradient>
<linearGradient id="paint3_linear_700_52359" x1="124.592" y1="62.9349" x2="61.4422" y2="50.4869" gradientUnits="userSpaceOnUse">
<stop offset="0.485064" stop-color="white" stop-opacity="0"/>
<stop offset="0.57715" stop-color="#FFF4D6" stop-opacity="0.345665"/>
<stop offset="0.750765" stop-color="#FFDE88"/>
</linearGradient>
<clipPath id="clip0_700_52359">
<rect width="95.4181" height="95.6591" rx="13.9636" fill="white"/>
</clipPath>
</defs>
</svg>
